<svg width="220" height="220" viewBox="0 0 220 220" fill="none" xmlns="http://www.w3.org/2000/svg">
<g clip-path="url(#clip0_12_27)">
<rect width="220" height="220" rx="45" fill="#001834"/>
<rect x="10" y="10" width="200" height="200" rx="45" fill="#006400"/>
<path d="M34.1667 -20C19.8008 -20 6.02327 -14.2932 -4.13495 -4.13495C-14.2932 6.02327 -20 19.8008 -20 34.1667V185.833C-20 200.199 -14.2932 213.977 -4.13495 224.135C6.02327 234.293 19.8008 240 34.1667 240H185.833C200.199 240 213.977 234.293 224.135 224.135C234.293 213.977 240 200.199 240 185.833V34.1667C240 19.8008 234.293 6.02327 224.135 -4.13495C213.977 -14.2932 200.199 -20 185.833 -20H34.1667ZM171.837 85.17L96.0033 161.003C94.997 162.012 93.8015 162.813 92.4854 163.359C91.1692 163.905 89.7583 164.186 88.3333 164.186C86.9084 164.186 85.4974 163.905 84.1813 163.359C82.8651 162.813 81.6697 162.012 80.6633 161.003L48.1633 128.503C47.1561 127.496 46.3571 126.3 45.812 124.984C45.2669 123.668 44.9863 122.258 44.9863 120.833C44.9863 119.409 45.2669 117.998 45.812 116.682C46.3571 115.366 47.1561 114.171 48.1633 113.163C50.1975 111.129 52.9565 109.986 55.8333 109.986C57.2578 109.986 58.6683 110.267 59.9843 110.812C61.3003 111.357 62.4961 112.156 63.5033 113.163L88.3333 138.015L156.497 69.83C158.531 67.7958 161.29 66.653 164.167 66.653C167.043 66.653 169.802 67.7958 171.837 69.83C173.871 71.8642 175.014 74.6232 175.014 77.5C175.014 80.3768 173.871 83.1358 171.837 85.17Z" fill="#002B5E"/>
<rect x="15" y="15" width="190" height="190" rx="30" stroke="#001834" stroke-width="30"/>
</g>
<defs>
<clipPath id="clip0_12_27">
<rect width="220" height="220" rx="45" fill="white"/>
</clipPath>
</defs>
</svg>
