<svg width="22" height="18" viewBox="0 0 22 18" fill="none" xmlns="http://www.w3.org/2000/svg">
<path d="M1 8V1.6C1 1.44087 1.06321 1.28826 1.17574 1.17574C1.28826 1.06321 1.44087 1 1.6 1H7.778C7.92101 0.999989 8.05932 1.05106 8.168 1.144L11.332 3.856C11.4407 3.94894 11.579 4.00001 11.722 4H20.4C20.4788 4 20.5568 4.01552 20.6296 4.04567C20.7024 4.07583 20.7685 4.12002 20.8243 4.17574C20.88 4.23145 20.9242 4.29759 20.9543 4.37039C20.9845 4.44319 21 4.52121 21 4.6V8M1 8V16.4C1 16.5591 1.06321 16.7117 1.17574 16.8243C1.28826 16.9368 1.44087 17 1.6 17H20.4C20.5591 17 20.7117 16.9368 20.8243 16.8243C20.9368 16.7117 21 16.5591 21 16.4V8M1 8H21" stroke="black" stroke-width="1.5" stroke-linecap="round" stroke-linejoin="round"/>
</svg>
