<svg width="18" height="14" viewBox="0 0 18 14" fill="none" xmlns="http://www.w3.org/2000/svg">
<path d="M9 14C10.1046 14 11 13.1046 11 12C11 10.8954 10.1046 10 9 10C7.89543 10 7 10.8954 7 12C7 13.1046 7.89543 14 9 14Z" fill="#128200"/>
<path d="M0 4.40003C1.1261 3.01674 2.51102 1.90888 4.06275 1.15003C5.61447 0.391178 7.29749 -0.00128174 9 -0.00128174C10.7025 -0.00128174 12.3855 0.391178 13.9373 1.15003C15.489 1.90888 16.8739 3.01674 18 4.40003L16.5 5.80003C15.5616 4.61891 14.4075 3.67297 13.1144 3.02503C11.8213 2.37709 10.4188 2.04199 9 2.04199C7.58124 2.04199 6.17873 2.37709 4.88562 3.02503C3.59251 3.67297 2.43842 4.61891 1.5 5.80003L0 4.40003ZM3.7 7.60003C4.35709 6.78789 5.17628 6.13514 6.10034 5.68738C7.0244 5.23962 8.03106 5.00763 9.05 5.00763C10.0689 5.00763 11.0756 5.23962 11.9997 5.68738C12.9237 6.13514 13.7429 6.78789 14.4 7.60003L13 9.00003C12.5315 8.38102 11.9378 7.88144 11.2628 7.53816C10.5878 7.19488 9.84868 7.01666 9.1 7.01666C8.35132 7.01666 7.6122 7.19488 6.93719 7.53816C6.26218 7.88144 5.66851 8.38102 5.2 9.00003L3.7 7.60003Z" fill="#128200"/>
</svg>
