<svg width="18" height="16" viewBox="0 0 18 16" fill="none" xmlns="http://www.w3.org/2000/svg">
<path d="M9 16C10.1046 16 11 15.1046 11 14C11 12.8954 10.1046 12 9 12C7.89543 12 7 12.8954 7 14C7 15.1046 7.89543 16 9 16Z" fill="#FF0000"/>
<path d="M15.4 9.6C14.2902 8.25452 12.7239 7.36461 11 7.1L14.4 10.5L15.4 9.6ZM18 6.4C16.6341 4.74343 14.9362 3.49487 13.0539 2.76289C11.1717 2.03091 9.16214 1.83768 7.2 2.2L9 4C10.4273 4.0465 11.8277 4.40126 13.105 5.03992C14.3824 5.67858 15.5064 6.58603 16.4 7.7L18 6.4ZM2.5 0L1 1.4L3.2 3.6C1.98797 4.35284 0.907065 5.29863 0 6.4L1.5 7.7C2.38802 6.63407 3.47486 5.75101 4.7 5.1L7 7.3C5.70631 7.7425 4.5629 8.53942 3.7 9.6L5.1 11C5.53225 10.4391 6.07453 9.97234 6.69357 9.62843C7.31261 9.28451 7.99538 9.07067 8.7 9L15.5 16L17 14.5L2.5 0Z" fill="#FF0000"/>
</svg>
