<svg width="40" height="40" viewBox="0 0 40 40" fill="none" xmlns="http://www.w3.org/2000/svg">
<path fill-rule="evenodd" clip-rule="evenodd" d="M40 20C40 31.046 31.046 40 20 40C8.954 40 0 31.046 0 20C0 8.954 8.954 0 20 0C31.046 0 40 8.954 40 20ZM12.222 27.778C12.0345 27.5905 11.9292 27.3362 11.9292 27.071C11.9292 26.8058 12.0345 26.5515 12.222 26.364L18.586 20L12.222 13.636C12.0398 13.4474 11.939 13.1948 11.9413 12.9326C11.9436 12.6704 12.0488 12.4196 12.2342 12.2342C12.4196 12.0488 12.6704 11.9436 12.9326 11.9413C13.1948 11.939 13.4474 12.0398 13.636 12.222L20 18.586L26.364 12.222C26.5526 12.0398 26.8052 11.939 27.0674 11.9413C27.3296 11.9436 27.5804 12.0488 27.7658 12.2342C27.9512 12.4196 28.0564 12.6704 28.0587 12.9326C28.061 13.1948 27.9602 13.4474 27.778 13.636L21.414 20L27.778 26.364C27.9602 26.5526 28.061 26.8052 28.0587 27.0674C28.0564 27.3296 27.9512 27.5804 27.7658 27.7658C27.5804 27.9512 27.3296 28.0564 27.0674 28.0587C26.8052 28.061 26.5526 27.9602 26.364 27.778L20 21.414L13.636 27.778C13.4485 27.9655 13.1942 28.0708 12.929 28.0708C12.6638 28.0708 12.4095 27.9655 12.222 27.778Z" fill="#FF0000"/>
</svg>
