<svg width="32" height="28" viewBox="0 0 32 28" fill="none" xmlns="http://www.w3.org/2000/svg">
<path d="M30 0H2C1.46957 0 0.960859 0.210714 0.585786 0.585786C0.210714 0.960859 0 1.46957 0 2V26C0 26.5304 0.210714 27.0391 0.585786 27.4142C0.960859 27.7893 1.46957 28 2 28H30C30.5304 28 31.0391 27.7893 31.4142 27.4142C31.7893 27.0391 32 26.5304 32 26V2C32 1.46957 31.7893 0.960859 31.4142 0.585786C31.0391 0.210714 30.5304 0 30 0ZM2 26V2H30V26H2Z" fill="black"/>
<path d="M6.91992 10C7.51327 10 8.09329 9.82405 8.58663 9.49441C9.07998 9.16477 9.4645 8.69623 9.69156 8.14805C9.91862 7.59987 9.97803 6.99667 9.86228 6.41473C9.74652 5.83279 9.4608 5.29824 9.04124 4.87868C8.62169 4.45912 8.08714 4.1734 7.50519 4.05765C6.92325 3.94189 6.32005 4.0013 5.77187 4.22836C5.22369 4.45543 4.75516 4.83994 4.42551 5.33329C4.09587 5.82664 3.91992 6.40666 3.91992 7C3.91992 7.79565 4.23599 8.55871 4.7986 9.12132C5.36121 9.68393 6.12427 10 6.91992 10ZM6.91992 5.4C7.23679 5.39802 7.54711 5.49017 7.81154 5.66478C8.07597 5.83938 8.28261 6.08857 8.40524 6.38075C8.52788 6.67293 8.56099 6.99495 8.50039 7.30597C8.43979 7.617 8.28819 7.90302 8.06483 8.12779C7.84147 8.35255 7.5564 8.50594 7.24576 8.56849C6.93512 8.63104 6.61291 8.59994 6.31996 8.47914C6.02702 8.35834 5.77654 8.15328 5.60028 7.88994C5.42402 7.62661 5.32993 7.31688 5.32992 7C5.33254 6.57912 5.5009 6.17622 5.79852 5.8786C6.09614 5.58098 6.49904 5.41262 6.91992 5.41V5.4Z" fill="black"/>
<path d="M20.7799 11.37L15.3799 16.77L11.3799 12.77C11.1926 12.5838 10.9391 12.4792 10.6749 12.4792C10.4107 12.4792 10.1573 12.5838 9.96992 12.77L3.91992 18.9V21.73L10.7099 14.94L13.9999 18.18L10.2499 21.93H12.9999L21.4499 13.48L27.9999 20V17.18L22.1899 11.37C22.0026 11.1838 21.7491 11.0792 21.4849 11.0792C21.2207 11.0792 20.9673 11.1838 20.7799 11.37Z" fill="black"/>
</svg>
