<svg width="40" height="40" viewBox="0 0 40 40" fill="none" xmlns="http://www.w3.org/2000/svg">
<path fill-rule="evenodd" clip-rule="evenodd" d="M20 40C31.046 40 40 31.046 40 20C40 8.954 31.046 0 20 0C8.954 0 0 8.954 0 20C0 31.046 8.954 40 20 40ZM30.742 13.67C30.8356 13.5736 30.9087 13.4594 30.9572 13.3341C31.0056 13.2088 31.0283 13.075 31.0239 12.9407C31.0195 12.8065 30.9881 12.6745 30.9316 12.5526C30.8751 12.4308 30.7946 12.3216 30.6949 12.2315C30.5952 12.1414 30.4784 12.0724 30.3515 12.0285C30.2245 11.9845 30.09 11.9666 29.956 11.9758C29.822 11.985 29.6912 12.0211 29.5715 12.082C29.4517 12.1428 29.3454 12.2272 29.259 12.33L17.28 25.567L10.69 19.276C10.4982 19.0927 10.2415 18.9932 9.97637 18.9992C9.7112 19.0052 9.45926 19.1162 9.276 19.308C9.09274 19.4998 8.99315 19.7565 8.99915 20.0216C9.00515 20.2868 9.11625 20.5387 9.308 20.722L16.642 27.722L17.385 28.432L18.074 27.67L30.742 13.67Z" fill="#128200"/>
</svg>
